<svg width="165" height="23" viewBox="0 0 165 23" fill="none" xmlns="http://www.w3.org/2000/svg">
<path d="M138.371 11.8307C137.199 11 135.889 10.3977 134.65 9.6693C133.827 9.2417 133.041 8.73708 132.302 8.16141C131.122 7.12597 131.359 5.08658 132.605 4.19681C134.373 2.93302 137.313 3.64956 137.617 6.22045C137.618 6.24726 137.63 6.27232 137.648 6.29058C137.667 6.30885 137.691 6.31895 137.716 6.31888H140.387C140.402 6.31896 140.417 6.31567 140.431 6.30921C140.444 6.30274 140.457 6.29327 140.467 6.28138C140.477 6.26949 140.485 6.25546 140.489 6.24022C140.494 6.22497 140.496 6.20885 140.494 6.19289C140.35 4.41728 139.717 2.94089 138.541 1.996C137.453 1.10381 136.12 0.616891 134.747 0.610168C127.671 0.610168 127.028 8.58268 130.833 11.0985C131.277 11.3898 135.009 13.3859 136.329 14.2481C137.65 15.1103 138.064 16.7087 137.491 17.9725C136.969 19.13 135.616 19.9056 134.262 19.8308C132.783 19.7481 131.636 18.8899 131.233 17.5552C131.168 17.2596 131.133 16.9573 131.129 16.6536C131.127 16.6247 131.115 16.5977 131.095 16.5779C131.076 16.5582 131.049 16.5472 131.022 16.5473H128.115C128.086 16.5483 128.059 16.5612 128.039 16.5833C128.019 16.6053 128.008 16.6348 128.008 16.6654C128.008 18.9017 128.533 20.1379 129.946 21.2678C131.184 22.268 132.7 22.8 134.255 22.7796C138.208 22.7796 140.272 20.3938 140.679 17.9213C141.086 15.4489 140.416 13.2717 138.371 11.8307Z" fill="#F7F7F7"/>
<path d="M12.4434 0.992127H9.76199C9.73944 0.991309 9.71729 0.99865 9.69916 1.01295C9.68102 1.02725 9.66797 1.04767 9.66214 1.07087L7.27288 9.42133C7.26688 9.44462 7.25385 9.46516 7.23581 9.4798C7.21777 9.49444 7.19571 9.50237 7.17302 9.50237C7.15034 9.50237 7.12828 9.49444 7.11024 9.4798C7.0922 9.46516 7.07917 9.44462 7.07317 9.42133L4.68761 1.07087C4.68051 1.0477 4.66662 1.02755 4.64799 1.01338C4.62935 0.999213 4.60695 0.991765 4.58405 0.992127H0.171714C0.143897 0.992109 0.117163 1.00359 0.0971516 1.02416C0.07714 1.04473 0.0654123 1.07277 0.0644531 1.10236V22.4372C0.0644531 22.4675 0.0757559 22.4965 0.0958705 22.5179C0.115985 22.5393 0.143267 22.5514 0.171714 22.5514H3.07876C3.09267 22.5514 3.10645 22.5484 3.11926 22.5426C3.13207 22.5368 3.14366 22.5284 3.15332 22.5177C3.16299 22.507 3.17054 22.4944 3.17552 22.4806C3.1805 22.4668 3.18281 22.452 3.18231 22.4372V6.22839C3.18428 6.20257 3.19443 6.17824 3.2111 6.15937C3.22777 6.14051 3.24997 6.12824 3.27406 6.12458C3.29814 6.12091 3.32268 6.12607 3.34365 6.13921C3.36461 6.15235 3.38076 6.1727 3.38943 6.1969L5.79347 14.6025L5.95991 15.1891C5.96701 15.2123 5.9809 15.2324 5.99953 15.2466C6.01816 15.2608 6.04057 15.2682 6.06346 15.2678H8.28258C8.30548 15.2682 8.32788 15.2608 8.34652 15.2466C8.36515 15.2324 8.37903 15.2123 8.38614 15.1891L8.55258 14.6025L10.9566 6.1969C10.9653 6.1727 10.9814 6.15235 11.0024 6.13921C11.0234 6.12607 11.0479 6.12091 11.072 6.12458C11.0961 6.12824 11.1183 6.14051 11.135 6.15937C11.1516 6.17824 11.1618 6.20257 11.1637 6.22839V22.4372C11.1632 22.452 11.1655 22.4668 11.1705 22.4806C11.1755 22.4944 11.1831 22.507 11.1927 22.5177C11.2024 22.5284 11.214 22.5368 11.2268 22.5426C11.2396 22.5484 11.2534 22.5514 11.2673 22.5514H14.1743C14.2028 22.5514 14.2301 22.5393 14.2502 22.5179C14.2703 22.4965 14.2816 22.4675 14.2816 22.4372V1.10236C14.2806 1.07277 14.2689 1.04473 14.2489 1.02416C14.2289 1.00359 14.2022 0.992109 14.1743 0.992127H12.4434Z" fill="#F7F7F7"/>
<path d="M93.9551 0.992067C93.9328 0.992533 93.9112 1.00037 93.8933 1.01448C93.8754 1.02858 93.8621 1.04828 93.8552 1.07081L91.4697 9.42127C91.4625 9.44397 91.4489 9.46371 91.4306 9.4777C91.4124 9.49168 91.3904 9.4992 91.3679 9.4992C91.3455 9.4992 91.3235 9.49168 91.3053 9.4777C91.287 9.46371 91.2734 9.44397 91.2662 9.42127L88.8807 1.07081C88.8743 1.04795 88.8611 1.02792 88.8431 1.01372C88.8251 0.999521 88.8032 0.991925 88.7808 0.992067H84.3685C84.3407 0.99205 84.3139 1.00353 84.2939 1.0241C84.2739 1.04467 84.2622 1.07271 84.2612 1.1023V22.4371C84.2612 22.4674 84.2725 22.4964 84.2926 22.5179C84.3128 22.5393 84.34 22.5513 84.3685 22.5513H87.2755C87.3033 22.5503 87.3297 22.5378 87.349 22.5165C87.3683 22.4952 87.3791 22.4667 87.3791 22.4371V6.22833C87.381 6.20251 87.3912 6.17818 87.4079 6.15931C87.4245 6.14045 87.4467 6.12818 87.4708 6.12452C87.4949 6.12086 87.5195 6.12601 87.5404 6.13915C87.5614 6.15229 87.5775 6.17264 87.5862 6.19684L89.9902 14.6024L90.1567 15.189C90.1636 15.2116 90.1769 15.2313 90.1948 15.2454C90.2127 15.2595 90.2343 15.2673 90.2565 15.2678H92.4757C92.4982 15.2686 92.5204 15.2613 92.5385 15.247C92.5566 15.2327 92.5697 15.2122 92.5755 15.189L92.7457 14.6024L95.146 6.19684C95.1547 6.17264 95.1708 6.15229 95.1918 6.13915C95.2128 6.12601 95.2373 6.12086 95.2614 6.12452C95.2855 6.12818 95.3077 6.14045 95.3243 6.15931C95.341 6.17818 95.3511 6.20251 95.3531 6.22833V22.4371C95.3531 22.4674 95.3644 22.4964 95.3845 22.5179C95.4046 22.5393 95.4319 22.5513 95.4604 22.5513H98.3674C98.3952 22.5503 98.4216 22.5378 98.4409 22.5165C98.4602 22.4952 98.471 22.4667 98.471 22.4371V1.1023C98.47 1.07338 98.4588 1.04591 98.4396 1.02544C98.4204 1.00498 98.3946 0.993049 98.3674 0.992067H93.9551Z" fill="#F7F7F7"/>
<path d="M56.5447 0.992065H42.8602C42.8324 0.992048 42.8056 1.00353 42.7856 1.0241C42.7656 1.04466 42.7539 1.07271 42.7529 1.1023V3.77162C42.7539 3.80121 42.7656 3.82925 42.7856 3.84982C42.8056 3.87039 42.8324 3.88187 42.8602 3.88185H48.1602V22.4371C48.1602 22.4521 48.163 22.467 48.1683 22.4808C48.1737 22.4947 48.1816 22.5073 48.1916 22.5179C48.2016 22.5285 48.2134 22.5369 48.2264 22.5426C48.2394 22.5483 48.2533 22.5513 48.2674 22.5513H51.1745C51.2023 22.5503 51.2286 22.5378 51.2479 22.5165C51.2673 22.4952 51.2781 22.4667 51.278 22.4371V3.88185H56.5447C56.5726 3.88187 56.5993 3.87039 56.6193 3.84982C56.6393 3.82925 56.651 3.80121 56.652 3.77162V1.1023C56.651 1.07271 56.6393 1.04466 56.6193 1.0241C56.5993 1.00353 56.5726 0.992048 56.5447 0.992065Z" fill="#F7F7F7"/>
<path d="M73.6651 22.5513H76.3058C76.322 22.5514 76.338 22.5475 76.3525 22.5398C76.367 22.5322 76.3796 22.521 76.3893 22.5072C76.399 22.4934 76.4055 22.4774 76.4084 22.4605C76.4112 22.4435 76.4103 22.4261 76.4057 22.4096L70.9689 1.00388C70.9624 0.979972 70.9488 0.958957 70.9301 0.944033C70.9114 0.929109 70.8887 0.921097 70.8653 0.921205H67.0706C67.0472 0.921097 67.0245 0.929109 67.0058 0.944033C66.9871 0.958957 66.9735 0.979972 66.967 1.00388L61.5117 22.4096C61.5078 22.4263 61.5075 22.4439 61.5109 22.4608C61.5142 22.4777 61.5212 22.4936 61.5311 22.5072C61.5411 22.5209 61.5539 22.5319 61.5684 22.5396C61.583 22.5472 61.599 22.5512 61.6153 22.5513H64.256C64.2792 22.5503 64.3015 22.5413 64.3195 22.5257C64.3375 22.5101 64.3503 22.4887 64.3559 22.4647L65.9426 16.2442C65.9483 16.2206 65.9612 16.1997 65.9793 16.1847C65.9973 16.1698 66.0195 16.1616 66.0424 16.1615H71.8787C71.9014 16.1622 71.9233 16.1706 71.9413 16.1855C71.9592 16.2003 71.9723 16.2209 71.9786 16.2442L73.5578 22.4607C73.5623 22.4872 73.5756 22.5109 73.5954 22.5276C73.6151 22.5442 73.6399 22.5527 73.6651 22.5513ZM66.734 13.13L68.857 4.79525C68.8641 4.77255 68.8778 4.75281 68.8961 4.73883C68.9143 4.72484 68.9362 4.71732 68.9587 4.71732C68.9812 4.71732 69.0031 4.72484 69.0214 4.73883C69.0396 4.75281 69.0533 4.77255 69.0604 4.79525L71.1834 13.13C71.188 13.1465 71.1889 13.1639 71.1861 13.1809C71.1832 13.1978 71.1767 13.2138 71.167 13.2276C71.1573 13.2414 71.1447 13.2526 71.1302 13.2602C71.1157 13.2679 71.0997 13.2718 71.0835 13.2717H66.8376C66.8213 13.2716 66.8053 13.2676 66.7908 13.26C66.7762 13.2523 66.7634 13.2413 66.7535 13.2276C66.7435 13.214 66.7366 13.1981 66.7332 13.1812C66.7298 13.1642 66.7301 13.1467 66.734 13.13Z" fill="#F7F7F7"/>
<path d="M118.68 22.5514H121.317C121.333 22.5513 121.349 22.5473 121.364 22.5396C121.378 22.532 121.391 22.5209 121.401 22.5073C121.411 22.4936 121.418 22.4777 121.421 22.4608C121.425 22.4439 121.425 22.4264 121.421 22.4096L115.965 1.00393C115.959 0.979679 115.946 0.958274 115.927 0.943246C115.908 0.928218 115.885 0.920467 115.862 0.921259H112.082C112.058 0.921151 112.036 0.929164 112.017 0.944087C111.998 0.959011 111.985 0.980026 111.978 1.00393L106.527 22.4096C106.523 22.4261 106.522 22.4433 106.526 22.4599C106.529 22.4765 106.535 22.4922 106.545 22.5058C106.554 22.5194 106.567 22.5305 106.581 22.5384C106.595 22.5463 106.611 22.5507 106.626 22.5514H109.267C109.291 22.551 109.313 22.5423 109.331 22.5266C109.349 22.5109 109.362 22.4891 109.367 22.4647L110.954 16.2442C110.96 16.2203 110.974 16.1993 110.993 16.1844C111.011 16.1694 111.034 16.1614 111.057 16.1615H116.89C116.913 16.1616 116.935 16.1698 116.953 16.1848C116.971 16.1997 116.984 16.2206 116.99 16.2442L118.576 22.4647C118.582 22.4894 118.595 22.5113 118.614 22.527C118.633 22.5426 118.656 22.5512 118.68 22.5514ZM111.749 13.13L113.872 4.79531C113.879 4.77261 113.893 4.75287 113.911 4.73888C113.929 4.7249 113.951 4.71738 113.974 4.71738C113.996 4.71738 114.018 4.7249 114.036 4.73888C114.055 4.75287 114.068 4.77261 114.075 4.79531L116.198 13.13C116.202 13.1468 116.202 13.1643 116.199 13.1812C116.196 13.1981 116.189 13.214 116.179 13.2277C116.169 13.2413 116.156 13.2524 116.142 13.26C116.127 13.2676 116.111 13.2717 116.095 13.2718H111.849C111.833 13.2719 111.817 13.2679 111.802 13.2603C111.788 13.2526 111.775 13.2414 111.765 13.2277C111.756 13.2139 111.749 13.1979 111.746 13.1809C111.743 13.164 111.744 13.1465 111.749 13.13Z" fill="#F7F7F7"/>
<path d="M26.0171 19.3977V12.7756C26.0166 12.761 26.0189 12.7464 26.0239 12.7328C26.0289 12.7192 26.0366 12.7068 26.0463 12.6964C26.056 12.6861 26.0676 12.678 26.0804 12.6727C26.0932 12.6673 26.1069 12.6648 26.1207 12.6654H33.8432C33.871 12.6644 33.8973 12.6519 33.9166 12.6306C33.936 12.6093 33.9468 12.5808 33.9467 12.5512V9.88584C33.9468 9.85623 33.936 9.82777 33.9166 9.80647C33.8973 9.78517 33.871 9.77268 33.8432 9.77166H26.1207C26.0932 9.77166 26.0668 9.76005 26.0474 9.73938C26.028 9.7187 26.0171 9.69066 26.0171 9.66142V3.99603C26.0166 3.98123 26.0189 3.96646 26.0239 3.95263C26.0289 3.9388 26.0364 3.92617 26.0461 3.91552C26.0558 3.90486 26.0673 3.89638 26.0802 3.8906C26.093 3.88481 26.1067 3.88184 26.1207 3.88185H34.9084C34.9362 3.88187 34.9629 3.87039 34.9829 3.84982C35.0029 3.82925 35.0146 3.80121 35.0156 3.77162V1.1023C35.0146 1.07271 35.0029 1.04466 34.9829 1.0241C34.9629 1.00353 34.9362 0.992048 34.9084 0.992065H23.0028C22.9753 0.992065 22.949 1.00368 22.9296 1.02435C22.9101 1.04502 22.8992 1.07307 22.8992 1.1023V22.4371C22.8987 22.4519 22.901 22.4667 22.906 22.4805C22.911 22.4944 22.9186 22.507 22.9282 22.5176C22.9379 22.5283 22.9495 22.5368 22.9623 22.5425C22.9751 22.5483 22.9889 22.5513 23.0028 22.5513H35.2856C35.3141 22.5513 35.3413 22.5393 35.3614 22.5179C35.3816 22.4964 35.3929 22.4674 35.3929 22.4371V19.6221C35.3929 19.5919 35.3816 19.5628 35.3614 19.5414C35.3413 19.52 35.3141 19.508 35.2856 19.508H26.1207C26.1069 19.5085 26.0932 19.506 26.0804 19.5007C26.0676 19.4954 26.056 19.4873 26.0463 19.4769C26.0366 19.4666 26.0289 19.4542 26.0239 19.4406C26.0189 19.4269 26.0166 19.4124 26.0171 19.3977Z" fill="#F7F7F7"/>
<path d="M164.882 22.3584L154.844 11.315C154.834 11.3047 154.827 11.2925 154.821 11.279C154.816 11.2654 154.813 11.2509 154.813 11.2362C154.813 11.2216 154.816 11.2071 154.821 11.1935C154.827 11.18 154.834 11.1678 154.844 11.1575L163.872 1.20073C163.887 1.18531 163.897 1.16553 163.901 1.14393C163.906 1.12234 163.903 1.09992 163.896 1.07958C163.888 1.05924 163.874 1.04191 163.857 1.02982C163.839 1.01773 163.819 1.01143 163.798 1.01175H160.104C160.089 1.01175 160.075 1.01489 160.061 1.02099C160.048 1.02708 160.036 1.03598 160.026 1.04718L152.363 9.51576C152.348 9.53228 152.329 9.54371 152.308 9.54857C152.287 9.55343 152.265 9.55151 152.245 9.54303C152.225 9.53456 152.208 9.51992 152.196 9.50103C152.184 9.48213 152.178 9.45984 152.178 9.43702V1.1023C152.178 1.07307 152.167 1.04502 152.147 1.02435C152.128 1.00368 152.102 0.992065 152.074 0.992065H149.167C149.139 0.992048 149.113 1.00353 149.093 1.0241C149.072 1.04466 149.061 1.07271 149.06 1.1023V22.4371C149.06 22.4674 149.071 22.4964 149.091 22.5179C149.111 22.5393 149.139 22.5513 149.167 22.5513H152.074C152.088 22.5513 152.102 22.5483 152.115 22.5425C152.127 22.5368 152.139 22.5283 152.149 22.5176C152.158 22.507 152.166 22.4944 152.171 22.4805C152.176 22.4667 152.178 22.4519 152.178 22.4371V13.0473C152.178 13.0253 152.185 13.004 152.197 12.9859C152.209 12.9678 152.225 12.9538 152.244 12.9455C152.263 12.9371 152.285 12.9349 152.305 12.939C152.325 12.9431 152.344 12.9533 152.359 12.9685L161.039 22.5159C161.059 22.5375 161.085 22.5503 161.113 22.5513H164.812C164.832 22.5499 164.852 22.5422 164.868 22.5294C164.885 22.5165 164.897 22.4989 164.905 22.4787C164.912 22.4584 164.914 22.4363 164.91 22.415C164.906 22.3937 164.896 22.3741 164.882 22.3584Z" fill="#F7F7F7"/>
</svg>
